<svg xmlns="http://www.w3.org/2000/svg" viewBox="0 0 419.86 74.91"><defs><style>.cls-1{fill:#4060FF;}</style></defs><g id="Layer_2" data-name="Layer 2"><g id="Layer_1-2" data-name="Layer 1"><path class="cls-1" d="M76.91,73.5V1.41h34.23c16.15,0,22.21,8.38,22.21,18.48,0,7.47-3.13,13.53-10.71,16.56v1c9,2.82,12.73,9.69,12.73,17.56,0,10.2-6.06,18.48-22.22,18.48ZM88.52,32.21h22.21c8.08,0,11-4.85,11-10.4s-2.93-10-11-10H88.52Zm0,30.89h23.62c8.08,0,11.11-4.85,11.11-10.4S120.12,42.6,112,42.6H88.52Z"/><path class="cls-1" d="M138.51,47.45C138.51,29.18,150,20,165.67,20c15.34,0,25.64,9.89,25.64,26.45a27.47,27.47,0,0,1-.3,4H149.92c.8,10.1,7.27,15.65,15.65,15.65,5.14,0,10-2.32,12.31-6.56h11.31c-3,9.59-12.12,15.34-23.52,15.34C148.91,74.91,138.51,64.51,138.51,47.45Zm41.09-5c-.91-8.88-7-13.83-14.44-13.83-7.27,0-13.73,4.85-14.94,13.83Z"/><path class="cls-1" d="M201.62,73.5V31.1h-9.29V21.4h9.29V17.16c0-12.72,6.46-17.16,16-17.16a58.43,58.43,0,0,1,9.9,1V10.1a45.65,45.65,0,0,0-6.87-.61c-5,0-7.67,1.62-7.67,8.28V21.4h22.39v9.7H213V73.5Z"/><path class="cls-1" d="M233,7.07a7,7,0,1,1,13.93,0,7,7,0,0,1-13.93,0Zm1.21,66.43V21.4H245.6V73.5Z"/><path class="cls-1" d="M251.65,73.5V44.83c0-17.17,9.9-24.84,25.85-24.84s25.84,7.17,25.84,24.33V73.5h-11.4V44.32c0-10.09-5.35-14.64-14.44-14.64s-14.44,5-14.44,15.15V73.5Z"/><path class="cls-1" d="M307.39,47.45c0-18.17,11-27.46,24.23-27.46,7.77,0,13.73,2.62,18.07,8.68h1l1-7.27h10.4V73.5h-10.4l-1-7.47h-1c-4.24,6.16-10.2,8.88-18.07,8.88C318.39,74.91,307.39,65.52,307.39,47.45Zm43.61,0c0-11.61-6.66-18-16.05-18s-15.85,6.26-15.85,18,6.56,18,15.85,18S351,59,351,47.45Z"/><path class="cls-1" d="M368.16,73.5V44.83C368.16,27.66,378.06,20,394,20s25.85,7.17,25.85,24.33V73.5H408.45V44.32c0-10.09-5.35-14.64-14.44-14.64s-14.44,5-14.44,15.15V73.5Z"/><path class="cls-1" d="M61.57,23.55a21.94,21.94,0,0,1-5,14c-.46-.55-.94-1.07-1.44-1.58a21.92,21.92,0,0,0-15.55-6.44H9.31L15.24,1.56H39.58a22,22,0,0,1,22,22Z"/><path class="cls-1" d="M61.57,51.51a22,22,0,0,1-22,22H0l5.92-28H39.58a22,22,0,0,0,17-8A22,22,0,0,1,61.57,51.51Z"/></g></g></svg>