<svg width="123" height="32" viewBox="0 0 123 32" fill="none" xmlns="http://www.w3.org/2000/svg">
<g clip-path="url(#clip0)">
<path d="M40.4623 25.3572C38.1446 25.3572 36.1503 24.5201 34.4794 22.8459C32.8355 21.1718 32 19.1736 32 16.8243C32 14.4751 32.8355 12.4769 34.4794 10.8027C36.1234 9.15556 38.1177 8.31848 40.4893 8.31848C42.5914 8.31848 44.4509 9.04755 46.0949 10.4787C46.4183 10.7757 46.4452 11.0998 46.1488 11.5048L45.0169 12.8279C44.7204 13.206 44.397 13.233 43.9928 12.9089C42.9148 12.0449 41.7559 11.6128 40.5162 11.6128C39.0879 11.6128 37.8751 12.1259 36.851 13.125C35.8269 14.1511 35.3149 15.3662 35.3149 16.7973C35.3149 18.2285 35.8 19.4436 36.8241 20.4967C37.8212 21.5228 39.0609 22.0359 40.4893 22.0359C41.7559 22.0359 42.9148 21.6038 44.0197 20.7127C44.397 20.3887 44.7204 20.4157 45.0438 20.7667L46.1218 22.1169C46.4183 22.5219 46.3913 22.8459 46.0679 23.143C44.3431 24.6281 42.4566 25.3572 40.4623 25.3572Z" fill="black"/>
<path d="M53.8022 21.7928C54.1795 21.7928 54.3681 22.0359 54.3681 22.5219V24.4121C54.3681 24.8981 54.1256 25.1412 53.6405 25.1412H53.344C49.8136 25.1412 48.0349 23.251 48.0618 19.5246L48.0888 2.75593C48.0888 2.26988 48.3313 2.02686 48.8164 2.02686H50.649C51.1611 2.02686 51.4036 2.26988 51.4036 2.75593L51.3767 19.5246C51.3767 20.2807 51.5653 20.8477 51.9426 21.2258C52.3199 21.6038 52.805 21.7928 53.4249 21.7928H53.8022Z" fill="black"/>
<path d="M71.2392 17.2293C71.2392 17.7154 70.9967 17.9584 70.5116 17.9584L57.9798 17.9314C58.3032 19.2545 58.95 20.3076 59.9202 21.0637C60.8904 21.8198 61.9684 22.1978 63.2081 22.1978C64.6904 22.1978 66.1457 21.6308 67.574 20.4966C67.9513 20.1726 68.3017 20.2266 68.5981 20.6047L69.6492 21.9008C69.9726 22.2788 69.9456 22.6299 69.5953 22.9269C67.7088 24.6011 65.5528 25.4381 63.1812 25.4111C60.7287 25.4111 58.6805 24.5471 57.0366 22.8189C55.3926 21.0907 54.5572 19.0385 54.5841 16.6623C54.5841 14.313 55.3926 12.3418 57.0096 10.7487C58.6266 9.15552 60.594 8.37244 62.9386 8.37244C65.2563 8.37244 67.1698 9.18252 68.7329 10.8027C70.2421 12.4228 71.1045 14.5831 71.2392 17.2293ZM58.0068 15.3121L67.6818 15.3391C67.4932 14.205 66.9542 13.2329 66.0379 12.4498C65.1216 11.6668 64.0705 11.2617 62.8578 11.2617C61.672 11.2617 60.6209 11.6398 59.6777 12.3688C58.7614 13.0979 58.2224 14.097 58.0068 15.3121Z" fill="black"/>
<path d="M88.6219 8.69647C88.8375 8.69647 89.0261 8.77748 89.1609 8.91249C89.2956 9.0475 89.3765 9.20952 89.3765 9.42554L89.3495 24.466C89.3495 24.6821 89.2687 24.8441 89.1339 24.9791C88.9992 25.1141 88.8105 25.1681 88.5949 25.1681H87.2205C86.7893 25.1681 86.5737 24.9521 86.5737 24.493V23.1159C84.9567 24.6551 83.0702 25.4111 80.8872 25.4111C78.5426 25.4111 76.5213 24.5741 74.8774 22.8999C73.2065 21.2257 72.3979 19.2005 72.3979 16.8513C72.3979 14.5291 73.2334 12.5309 74.9043 10.8567C76.5752 9.20952 78.5965 8.37244 80.9411 8.37244C83.0702 8.37244 84.9567 9.12851 86.5737 10.6677V9.31753C86.5737 8.88549 86.7893 8.66947 87.2474 8.66947L88.6219 8.69647ZM77.2759 20.6047C78.2731 21.6308 79.5128 22.1438 80.9411 22.1438C82.3695 22.1438 83.5822 21.6308 84.6063 20.6317C85.6035 19.6056 86.1155 18.3904 86.1155 16.9323C86.1155 15.5011 85.6304 14.286 84.6063 13.2599C83.6092 12.2338 82.3695 11.7208 80.9411 11.7208C79.5128 11.7208 78.3 12.2338 77.2759 13.2329C76.2788 14.259 75.7667 15.4741 75.7667 16.9053C75.7667 18.3364 76.2518 19.5786 77.2759 20.6047Z" fill="black"/>
<path d="M99.5097 8.72351C99.9948 8.72351 100.237 8.96654 100.237 9.45258V11.1808C100.237 11.6668 99.9948 11.9098 99.4828 11.9098H98.3509C97.2998 11.9098 96.4105 12.2069 95.7098 12.8279C95.009 13.449 94.6317 14.2591 94.6317 15.2852L94.6048 24.4931C94.6048 24.9791 94.3623 25.2222 93.8772 25.2222H92.0445C91.5594 25.2222 91.3169 24.9791 91.3169 24.4931L91.3438 9.45258C91.3438 8.96654 91.5864 8.72351 92.0715 8.72351H93.3921C93.8502 8.72351 94.0927 8.93953 94.0927 9.39858V10.0466C95.009 9.15555 96.3027 8.72351 97.9736 8.72351H99.5097Z" fill="black"/>
<path d="M116.03 8.77761C116.273 8.77761 116.461 8.85862 116.542 8.99363C116.65 9.12865 116.65 9.31767 116.569 9.53369L109.805 25.8703C108.511 28.9486 106.409 30.9738 103.499 31.9729C103.067 32.108 102.771 31.9459 102.609 31.4599L102.016 29.8667C101.855 29.3807 102.016 29.0566 102.447 28.8946C104.603 28.1116 106.14 26.4374 107.056 23.8991L101.208 9.50669C101.046 8.99363 101.208 8.75061 101.747 8.75061H103.957C104.334 8.75061 104.577 8.93963 104.711 9.29066L108.862 19.5247L113.039 9.29066C113.174 8.93963 113.443 8.75061 113.82 8.75061L116.03 8.77761Z" fill="black"/>
</g>
<g clip-path="url(#clip1)">
<path fill-rule="evenodd" clip-rule="evenodd" d="M9.86789 21.506L8.06631 22.4871C7.61592 22.7225 7.61592 23.3504 8.06631 23.5859L14.0443 26.8824C14.249 27.0001 14.4947 27.0001 14.6994 26.8824L17.1561 25.5089C17.3608 25.3911 17.4836 25.1949 17.4836 24.9594V17.4246C17.4836 17.1891 17.3608 16.9929 17.1561 16.8751L15.3545 15.894C14.9041 15.6586 14.3718 15.9725 14.3718 16.4435V22.6048C14.3718 23.0757 13.8395 23.3897 13.3891 23.1542L10.523 21.5452C10.3183 21.4275 10.0726 21.4275 9.86789 21.506Z" fill="#34299F"/>
<path fill-rule="evenodd" clip-rule="evenodd" d="M18.6706 20.0928V22.0943C18.6706 22.5652 19.2029 22.8792 19.6533 22.6437L25.6312 19.3472C25.836 19.2294 25.9588 19.0332 25.9588 18.7978V16.0899C25.9588 15.8544 25.836 15.6582 25.6312 15.5405L18.7525 11.7338C18.5478 11.6161 18.3021 11.6161 18.0974 11.7338L16.2958 12.7149C15.8454 12.9504 15.8454 13.5783 16.2958 13.8137L21.9053 16.8748C22.3556 17.1103 22.3556 17.7382 21.9053 17.9736L19.0391 19.5826C18.7934 19.6611 18.6706 19.8574 18.6706 20.0928Z" fill="#EE4D76"/>
<path fill-rule="evenodd" clip-rule="evenodd" d="M21.7828 12.0872L23.5844 13.0683C24.0348 13.3038 24.5671 12.9898 24.5671 12.5189V5.88663C24.5671 5.65117 24.4442 5.45494 24.2395 5.33721L21.7828 3.96367C21.5781 3.84593 21.3324 3.84593 21.1277 3.96367L14.2489 7.77035C14.0442 7.88808 13.9214 8.0843 13.9214 8.31977V10.3212C13.9214 10.7922 14.4537 11.1061 14.9041 10.8706L20.4726 7.8096C20.923 7.57413 21.4552 7.88808 21.4552 8.35901V11.5378C21.4552 11.734 21.5781 11.9695 21.7828 12.0872Z" fill="#4F79F0"/>
<path fill-rule="evenodd" clip-rule="evenodd" d="M16.0913 5.49411L17.8929 4.513C18.3433 4.27754 18.3433 3.64963 17.8929 3.41417L11.915 0.0784117C11.7102 -0.0393208 11.4646 -0.0393208 11.2598 0.0784117L8.80314 1.45196C8.59842 1.56969 8.47559 1.76591 8.47559 2.00138V9.61475C8.47559 9.85021 8.59842 10.0464 8.80314 10.1642L10.6047 11.1453C11.0551 11.3807 11.5874 11.0668 11.5874 10.5959V4.43452C11.5874 3.96359 12.1197 3.64963 12.5701 3.8851L15.4362 5.49411C15.6409 5.61184 15.8866 5.61184 16.0913 5.49411Z" fill="#34299F"/>
<path fill-rule="evenodd" clip-rule="evenodd" d="M7.28819 6.90695V4.90549C7.28819 4.43456 6.75591 4.12061 6.30551 4.35607L0.327559 7.69183C0.122835 7.80956 0 8.00578 0 8.24125V10.9491C0 11.1846 0.122835 11.3808 0.327559 11.4985L7.2063 15.3052C7.41102 15.4229 7.65669 15.4229 7.86142 15.3052L9.66299 14.3241C10.1134 14.0886 10.1134 13.4607 9.66299 13.2253L4.09449 10.125C3.64409 9.8895 3.64409 9.2616 4.09449 9.02613L6.96063 7.41712C7.16535 7.33863 7.28819 7.14241 7.28819 6.90695Z" fill="#EE4D76"/>
<path fill-rule="evenodd" clip-rule="evenodd" d="M4.17634 14.952L2.37477 13.9709C1.92437 13.7355 1.39209 14.0494 1.39209 14.5204V21.1526C1.39209 21.3881 1.51492 21.5843 1.71965 21.702L4.17634 23.0756C4.38107 23.1933 4.62674 23.1933 4.83146 23.0756L11.7102 19.2689C11.9149 19.1512 12.0378 18.955 12.0378 18.7195V16.718C12.0378 16.2471 11.5055 15.9332 11.0551 16.1686L5.48658 19.2689C5.03618 19.5044 4.5039 19.1904 4.5039 18.7195V15.5407C4.5039 15.266 4.38107 15.0305 4.17634 14.952Z" fill="#4F79F0"/>
</g>
<defs>
<clipPath id="clip0">
<rect width="123" height="30" fill="white" transform="translate(0 2)"/>
</clipPath>
<clipPath id="clip1">
<rect width="26" height="27" fill="white"/>
</clipPath>
</defs>
</svg>
