<svg width="223" height="27" viewBox="0 0 223 27" fill="none" xmlns="http://www.w3.org/2000/svg">
<path d="M52.3244 7.52297L49.7393 9.23714C48.5754 7.54997 46.6805 6.48368 44.3932 6.48368C40.4817 6.48368 37.6124 9.30463 37.6124 13.4348C37.6124 17.565 40.4817 20.386 44.3932 20.386C46.667 20.386 48.5348 19.3602 49.7258 17.646L52.2432 19.4951C50.6191 21.8842 47.7362 23.3554 44.3932 23.3554C38.5057 23.3554 34.3641 19.1577 34.3641 13.4483C34.3641 7.73893 38.5057 3.54125 44.3932 3.54125C47.7904 3.51425 50.8221 5.02596 52.3244 7.52297Z" fill="#4CBF8C"/>
<path d="M66.9823 16.4446C66.9823 20.3588 63.9777 23.3282 59.9173 23.3282C55.857 23.3282 52.8658 20.3723 52.8658 16.4446C52.8658 12.5168 55.857 9.56091 59.9173 9.56091C63.9777 9.56091 66.9823 12.5303 66.9823 16.4446ZM55.8164 16.4446C55.8164 18.9146 57.5759 20.6288 59.9173 20.6288C62.2588 20.6288 64.0318 18.9146 64.0318 16.4446C64.0318 13.9746 62.2588 12.2604 59.9173 12.2604C57.5759 12.2469 55.8164 13.9746 55.8164 16.4446Z" fill="#4CBF8C"/>
<path d="M90.1127 15.0816V23.3015H87.2433V16.0264C87.2433 13.8263 86.1064 12.5981 84.1981 12.5981C82.3439 12.5981 80.8009 13.8128 80.8009 16.0534V23.3015H77.9316V16.0264C77.9316 13.8263 76.7947 12.5981 74.8863 12.5981C73.0321 12.5981 71.4892 13.8128 71.4892 16.0534V23.3015H68.6199V10.2225H71.4621V11.8152C72.5178 10.2765 74.142 9.87158 75.4819 9.87158C77.485 9.87158 79.1091 10.7624 80.0159 12.2066C81.1528 10.344 83.183 9.87158 84.8071 9.87158C87.9201 9.88508 90.1127 12.0177 90.1127 15.0816Z" fill="#4CBF8C"/>
<path d="M104.568 17.4435C104.568 21.6007 101.563 23.3283 98.4906 23.3283C95.4047 23.3283 92.4136 21.6142 92.4136 17.4435V9.89844H95.2829V17.1735C95.2829 19.6975 96.6905 20.6288 98.4906 20.6288C100.291 20.6288 101.698 19.6975 101.698 17.1735V9.89844H104.568V17.4435V17.4435Z" fill="#4CBF8C"/>
<path d="M119.198 15.0946V23.3145H116.329V16.0394C116.329 13.8394 115.192 12.6111 113.284 12.6111C111.43 12.6111 109.887 13.8259 109.887 16.0664V23.3145H107.017V10.2356H109.86V11.8283C110.915 10.2896 112.539 9.88464 113.879 9.88464C116.992 9.89814 119.198 12.0442 119.198 15.0946Z" fill="#4CBF8C"/>
<path d="M125.072 5.74116C125.072 6.87494 124.179 7.73877 123.042 7.73877C121.905 7.73877 121.039 6.87494 121.039 5.74116C121.039 4.60738 121.905 3.71655 123.042 3.71655C124.179 3.71655 125.072 4.60738 125.072 5.74116ZM124.504 23.3282H121.634V10.2493H124.504V23.3282Z" fill="#4CBF8C"/>
<path d="M136.807 11.6935V3.52759H139.663V23.5307H136.807V21.6141C135.9 22.7748 134.547 23.5307 132.692 23.5307C129.024 23.5307 126.142 20.6558 126.142 16.647C126.142 12.6518 129.024 9.76337 132.692 9.76337C134.547 9.76337 135.9 10.5327 136.807 11.6935ZM129.065 16.647C129.065 18.9416 130.554 20.8312 133.017 20.8312C135.386 20.8312 136.969 19.0361 136.969 16.647C136.969 14.258 135.386 12.4628 133.017 12.4628C130.554 12.4494 129.065 14.3525 129.065 16.647Z" fill="#4CBF8C"/>
<path d="M154.821 23.3147H151.965V21.4116C151.058 22.5724 149.705 23.3282 147.851 23.3282C144.183 23.3282 141.3 20.4533 141.3 16.4446C141.3 12.4359 144.183 9.56091 147.851 9.56091C149.719 9.56091 151.072 10.3303 151.965 11.491V9.89835H154.821V23.3147ZM144.223 16.4446C144.223 18.7391 145.712 20.6288 148.176 20.6288C150.544 20.6288 152.128 18.8336 152.128 16.4446C152.128 14.0555 150.544 12.2604 148.176 12.2604C145.726 12.2469 144.223 14.15 144.223 16.4446Z" fill="#4CBF8C"/>
<path d="M167.124 11.6935V3.52759H169.98V23.4767H167.124V21.6141C166.217 22.7748 164.864 23.5307 163.009 23.5307C159.342 23.5307 156.459 20.6558 156.459 16.647C156.459 12.6383 159.342 9.76337 163.009 9.76337C164.864 9.76337 166.217 10.5327 167.124 11.6935ZM159.396 16.647C159.396 18.9416 160.885 20.8312 163.348 20.8312C165.716 20.8312 167.3 19.0361 167.3 16.647C167.3 14.258 165.716 12.4628 163.348 12.4628C160.885 12.4494 159.396 14.3525 159.396 16.647Z" fill="#4CBF8C"/>
<path d="M186.059 14.6629H175.935V23.3147H172.781V3.52759H186.695V6.49701H175.935V11.6935H186.059V14.6629Z" fill="#4CBF8C"/>
<path d="M199.837 16.4309C199.837 16.7954 199.81 17.1733 199.783 17.4972H190.092C190.471 19.8458 192.136 20.8311 193.99 20.8311C195.303 20.8311 196.697 20.3182 197.78 19.4543L199.201 21.4925C197.604 22.8557 195.79 23.3416 193.814 23.3416C189.889 23.3416 187.114 20.6151 187.114 16.4579C187.114 12.3682 189.781 9.57427 193.638 9.57427C197.306 9.56077 199.823 12.3412 199.837 16.4309ZM190.106 15.3242H196.913C196.602 13.286 195.411 12.0983 193.584 12.0983C191.54 12.0983 190.403 13.4075 190.106 15.3242Z" fill="#4CBF8C"/>
<path d="M204.33 3.55469H201.461V23.2743H204.33V3.55469Z" fill="#4CBF8C"/>
<path d="M210.353 5.4172C210.353 6.56448 209.46 7.44181 208.323 7.44181C207.186 7.44181 206.32 6.56448 206.32 5.4172C206.32 4.26992 207.186 3.3656 208.323 3.3656C209.46 3.3656 210.353 4.26992 210.353 5.4172ZM209.785 23.2877H206.915V10.0063H209.785V23.2877Z" fill="#4CBF8C"/>
<path d="M222.643 12.3009L215.483 20.6963H222.778V23.2877H211.68V21.2226L218.961 12.8138H211.896V10.2223H222.643V12.3009Z" fill="#4CBF8C"/>
<path d="M5.52207 17.9699L5.91458 15.1355L13.0067 11.5182L17.2023 13.5833L17.473 16.6742C18.1362 17.0926 18.7453 17.592 19.2731 18.1319C19.6521 18.0644 20.0311 17.9564 20.4236 17.9564C22.941 17.9564 25.1065 19.5221 26.0674 21.6817V1.54362C26.0674 1.17919 25.9186 0.855254 25.6749 0.612301C25.4449 0.382846 25.12 0.234375 24.7546 0.234375H1.31285C1.06923 0.234375 0.839139 0.301862 0.636121 0.423338C0.257155 0.652794 0 1.07121 0 1.54362V21.6952C0.947415 19.5626 3.0588 18.0104 5.52207 17.9699ZM20.207 14.6496L13.0202 10.9513V7.26651L19.7739 11.6666L20.207 14.6496ZM19.7198 11.2887L13.0202 6.8076L6.45596 11.3427L6.82139 8.75122L13.0202 3.74369L19.3408 8.71072L19.7198 11.2887ZM6.40182 11.7206L9.21699 9.81751L8.9463 13.1109L5.98225 14.6766L6.40182 11.7206Z" fill="#4CBF8C"/>
<path d="M20.8025 19.117C20.383 19.117 19.9769 19.1575 19.5844 19.225C17.9197 17.6053 15.5782 16.593 13.0067 16.593C10.4351 16.593 8.13423 17.6053 6.48302 19.225C6.09052 19.1575 5.68449 19.117 5.26492 19.117C3.08587 19.117 1.16397 20.1293 0 21.695V24.9344C0 25.1099 0.0406035 25.2853 0.108276 25.4473C0.311293 25.9197 0.771466 26.2436 1.31285 26.2436H24.7546C25.12 26.2436 25.4449 26.0952 25.6749 25.8522C25.9186 25.6093 26.0674 25.2853 26.0674 24.9209V21.6815C24.9035 20.1293 22.9816 19.117 20.8025 19.117Z" fill="#4CBF8C"/>
</svg>
