<svg width="82" height="33" fill="none" xmlns="http://www.w3.org/2000/svg"><path d="M9.775 11.568v5.605H6.788V11.49c0-.824-.13-1.43-.386-1.814-.258-.385-.673-.58-1.246-.582a2.17 2.17 0 0 0-.827.163 2.13 2.13 0 0 0-.697.465c-.443.42-.664 1.035-.664 1.846v5.605H0V6.775h2.968v1.179C3.787 7.052 4.725 6.6 5.781 6.6a3.1 3.1 0 0 1 1.831.58c.527.362.953.847 1.24 1.41a4.143 4.143 0 0 1 1.651-1.468 4.614 4.614 0 0 1 2.088-.522c1.253 0 2.262.364 3.027 1.092.766.727 1.147 1.781 1.143 3.16v6.32h-2.987V11.49c0-1.597-.601-2.395-1.802-2.396a2.172 2.172 0 0 0-.84.159 2.131 2.131 0 0 0-.708.47c-.433.417-.649 1.032-.649 1.845Zm9.323-5.134a1.613 1.613 0 0 1-.504-1.21 1.666 1.666 0 0 1 .495-1.229c.162-.162.356-.291.57-.38a1.778 1.778 0 0 1 1.923.38 1.695 1.695 0 0 1 .495 1.23 1.68 1.68 0 0 1-.296.945c-.191.28-.463.497-.782.627a1.792 1.792 0 0 1-1.006.1 1.763 1.763 0 0 1-.895-.463Zm-.249 1.706v9.033h2.967V8.14a3.538 3.538 0 0 1-2.967 0ZM26.443.747h8.507c5.412 0 9.807 4.316 9.807 9.63a9.483 9.483 0 0 1-2.877 6.767 9.945 9.945 0 0 1-6.93 2.81h-8.507V.747Zm8.728 14.619c2.706 0 4.804-2.266 4.804-4.99 0-2.778-2.098-5.042-4.804-5.042h-3.978v10.034l3.978-.002ZM43.34.747h5.192l5.524 13.19L59.58.746h5.193l-8.12 19.204H51.46L43.34.747Zm37.182 19.204h-5.191L69.807 6.762l-5.523 13.19H59.09L67.211.746h5.192l8.12 19.204Zm-31.249 9.084c-.25 0-.477-.051-.683-.154a1.51 1.51 0 0 1-.504-.439c-.13-.19-.22-.4-.268-.634l.114-.146-.065 1.292h-.983v-5.843h1.113v2.926l-.106-.17a1.49 1.49 0 0 1 .496-.757c.244-.2.55-.3.918-.3.32 0 .61.084.87.252.26.168.463.409.61.723.15.314.227.696.227 1.146 0 .438-.076.815-.228 1.13a1.612 1.612 0 0 1-1.511.975Zm-.334-.853c.298 0 .531-.105.7-.317.173-.216.26-.53.26-.942 0-.412-.085-.724-.252-.935-.168-.217-.401-.325-.7-.325a.831.831 0 0 0-.503.154 1.03 1.03 0 0 0-.333.44 1.804 1.804 0 0 0-.114.674c0 .265.038.493.114.682a.977.977 0 0 0 .333.423.873.873 0 0 0 .495.146Zm6.676-3.291-1.641 4.315c-.13.368-.277.66-.44.878a1.419 1.419 0 0 1-.552.47 1.713 1.713 0 0 1-.74.147 2.01 2.01 0 0 1-.584-.081 1.746 1.746 0 0 1-.455-.195l.235-.805a.939.939 0 0 0 .325.171c.114.038.244.057.39.057a.744.744 0 0 0 .39-.098c.114-.064.209-.195.285-.39l.138-.349-.447-1.056-1.243-3.064h1.235l.772 2.438.211.813.252-.862.74-2.389h1.13Zm7.631-1.3v5.363h-1.283l-1.877-3.153-.464-.877h-.008l.033.926v3.104h-1.008v-5.363h1.276l1.877 3.145.463.885h.016l-.032-.926v-3.104h1.008Zm3.57 2.77c0-.232-.067-.414-.202-.544a.703.703 0 0 0-.52-.195c-.2 0-.377.052-.529.155-.151.103-.262.273-.333.512l-.95-.293c.092-.357.292-.644.6-.861.315-.217.735-.325 1.26-.325.358 0 .67.057.935.17.265.109.471.274.617.496.152.222.228.501.228.837v1.65c0 .206.097.308.293.308a.817.817 0 0 0 .26-.04l-.066.69c-.14.071-.316.106-.528.106-.19 0-.36-.032-.512-.097a.795.795 0 0 1-.357-.293.917.917 0 0 1-.13-.504v-.032l.195-.033a.935.935 0 0 1-.268.529c-.147.14-.325.249-.537.325-.206.075-.42.113-.642.113a1.9 1.9 0 0 1-.715-.122 1.032 1.032 0 0 1-.463-.373 1.06 1.06 0 0 1-.162-.602c0-.303.097-.55.292-.74.195-.194.474-.327.837-.397l1.528-.31-.008.692-.975.195a1.21 1.21 0 0 0-.423.154c-.092.06-.138.16-.138.3 0 .136.049.24.146.31.103.07.225.105.366.105.113 0 .225-.013.333-.04a.894.894 0 0 0 .292-.13.6.6 0 0 0 .204-.244.867.867 0 0 0 .073-.374v-1.097Zm3.765 2.674c-.27 0-.515-.048-.731-.146a1.16 1.16 0 0 1-.52-.463c-.125-.217-.187-.496-.187-.837V24.89h1.113v2.43c0 .314.065.533.195.658.13.12.317.179.56.179.114 0 .225-.02.334-.057a.888.888 0 0 0 .488-.528c.048-.141.073-.306.073-.496V24.89h1.113v4.063h-.992l-.04-.707a1.361 1.361 0 0 1-.56.602 1.786 1.786 0 0 1-.846.186Zm5.048-5.387v3.982c0 .195.048.338.146.43.103.087.24.13.414.13.136 0 .255-.019.358-.057.103-.043.195-.1.276-.17l.179.74c-.13.102-.293.183-.488.243s-.4.09-.617.09c-.271 0-.512-.041-.724-.123a1.022 1.022 0 0 1-.487-.39c-.114-.178-.17-.417-.17-.715v-3.852l1.113-.308Zm1.3 1.243v.829h-3.161v-.829h3.16Zm3.109 1.47c0-.232-.068-.414-.204-.544a.703.703 0 0 0-.52-.195c-.2 0-.376.052-.528.155-.151.103-.263.273-.333.512l-.95-.293a1.47 1.47 0 0 1 .6-.861c.315-.217.735-.325 1.26-.325.358 0 .67.057.935.17.265.109.47.274.617.496.152.222.228.501.228.837v1.65c0 .206.097.308.292.308a.816.816 0 0 0 .26-.04l-.065.69c-.14.071-.317.106-.528.106-.19 0-.36-.032-.512-.097a.795.795 0 0 1-.357-.293.917.917 0 0 1-.13-.504v-.032l.195-.033a.936.936 0 0 1-.269.529c-.146.14-.325.249-.536.325-.206.075-.42.113-.642.113a1.9 1.9 0 0 1-.715-.122 1.031 1.031 0 0 1-.463-.373 1.06 1.06 0 0 1-.163-.602c0-.303.098-.55.293-.74.195-.194.474-.327.837-.397l1.528-.31-.009.692-.975.195a1.212 1.212 0 0 0-.422.154c-.092.06-.138.16-.138.3 0 .136.048.24.146.31.103.07.225.105.366.105.113 0 .224-.013.333-.04a.895.895 0 0 0 .292-.13.601.601 0 0 0 .204-.244.869.869 0 0 0 .073-.374v-1.097Z" fill="#000"/></svg>