<svg width="153" height="30" viewBox="0 0 153 30" fill="none" xmlns="http://www.w3.org/2000/svg">
<path d="M11.6812 14.4738L11.3513 14.5685L8.89746 18.7735L17.2949 27.2867H24.3141L11.6812 14.4738Z" fill="#2A1A4D"/>
<path d="M4.40564 6.7776V8.91273L0 4.55192L4.40564 0.193207V2.32413H14.0615C20.1185 2.32413 23.6816 5.72687 23.6816 10.5341C23.6816 15.1539 20.1185 18.7756 14.0615 18.7756H8.89532L11.4921 14.3222L14.0615 14.2969C17.0574 14.2969 18.6646 12.5639 18.6646 10.532C18.6646 8.40948 17.0574 6.78181 14.0615 6.78181L8.86591 6.7776H4.40564Z" fill="#2A1A4D"/>
<path d="M35.661 27.8068C33.8122 27.8068 32.1735 27.4109 30.7449 26.6213C29.3162 25.8317 28.1943 24.7199 27.3813 23.286C26.5682 21.8541 26.1606 20.1991 26.1606 18.3208C26.1606 16.4194 26.5619 14.7265 27.3624 13.2441C28.1628 11.7617 29.2721 10.6078 30.6902 9.78027C32.1063 8.95275 33.7765 8.53793 35.6988 8.53793C37.4972 8.53793 39.0876 8.9338 40.468 9.72342C41.8483 10.5151 42.926 11.5953 43.7034 12.9661C44.4807 14.3369 44.8673 15.8635 44.8673 17.5417C44.8673 17.8134 44.861 18.0976 44.8484 18.3945C44.8358 18.6914 44.8169 19.001 44.7938 19.321H30.8562C30.955 20.7529 31.4529 21.8773 32.3542 22.6922C33.2534 23.5071 34.3438 23.9156 35.6253 23.9156C36.5875 23.9156 37.3943 23.6987 38.0477 23.267C38.7011 22.8354 39.1864 22.2731 39.5078 21.5804H44.3126C43.9681 22.7427 43.3945 23.7976 42.5941 24.7494C41.7936 25.7012 40.8062 26.4487 39.636 26.9919C38.4637 27.5331 37.1401 27.8068 35.661 27.8068ZM35.6967 12.3913C34.537 12.3913 33.516 12.7198 32.6273 13.3725C31.7407 14.0274 31.1735 15.0213 30.9276 16.3562H40.0583C39.9847 15.1455 39.5414 14.1832 38.7263 13.4652C37.9153 12.7493 36.9048 12.3913 35.6967 12.3913Z" fill="#2A1A4D"/>
<path d="M51.6681 27.3604L44.9409 8.98221H49.8949L54.5527 22.8774L59.2104 8.98221H64.1644L57.3994 27.3604H51.6681Z" fill="#2A1A4D"/>
<path d="M73.7763 27.8068C71.9275 27.8068 70.2887 27.4109 68.8601 26.6213C67.4315 25.8317 66.3096 24.7199 65.4965 23.286C64.6835 21.8541 64.2759 20.1991 64.2759 18.3208C64.2759 16.4194 64.6772 14.7265 65.4776 13.2441C66.2781 11.7617 67.3874 10.6078 68.8055 9.78027C70.2215 8.95275 71.8917 8.53793 73.8141 8.53793C75.6125 8.53793 77.2029 8.9338 78.5832 9.72342C79.9635 10.5151 81.0413 11.5953 81.8186 12.9661C82.596 14.3369 82.9825 15.8635 82.9825 17.5417C82.9825 17.8134 82.9762 18.0976 82.9636 18.3945C82.951 18.6914 82.9321 19.001 82.909 19.321H68.9714C69.0702 20.7529 69.5681 21.8773 70.4694 22.6922C71.3686 23.5071 72.459 23.9156 73.7406 23.9156C74.7028 23.9156 75.5095 23.6987 76.1629 23.267C76.8163 22.8354 77.3016 22.2731 77.6231 21.5804H82.4279C82.0833 22.7427 81.5098 23.7976 80.7093 24.7494C79.9089 25.7012 78.9214 26.4487 77.7512 26.9919C76.5789 27.5331 75.2553 27.8068 73.7763 27.8068ZM73.8141 12.3913C72.6544 12.3913 71.6333 12.7198 70.7446 13.3725C69.858 14.0274 69.2908 15.0213 69.045 16.3562H78.1756C78.1021 15.1455 77.6588 14.1832 76.8436 13.4652C76.0306 12.7493 75.02 12.3913 73.8141 12.3913Z" fill="#2A1A4D"/>
<path d="M85.5684 27.3604V8.98223H89.7828L90.2261 12.4292C90.8921 11.2437 91.7976 10.2983 92.9426 9.59497C94.0876 8.89168 95.4385 8.53793 96.9911 8.53793V13.541H95.6612C94.6255 13.541 93.701 13.701 92.888 14.0232C92.0749 14.3453 91.4404 14.9012 90.9845 15.6909C90.5286 16.4826 90.2996 17.5796 90.2996 18.9883V27.3625H85.5684V27.3604Z" fill="#2A1A4D"/>
<path d="M106.383 27.8068C104.757 27.8068 103.326 27.5415 102.095 27.0109C100.861 26.4802 99.8761 25.7454 99.1365 24.8062C98.397 23.8671 97.9537 22.7806 97.8066 21.5467H102.576C102.723 22.2626 103.124 22.8754 103.777 23.3807C104.431 23.8882 105.275 24.1409 106.309 24.1409C107.345 24.1409 108.101 23.9324 108.582 23.5113C109.063 23.0922 109.303 22.61 109.303 22.0668C109.303 21.2772 108.958 20.7402 108.267 20.4539C107.578 20.1696 106.616 19.8916 105.385 19.62C104.595 19.4473 103.794 19.2368 102.981 18.9904C102.168 18.7441 101.422 18.4282 100.744 18.045C100.065 17.6617 99.5168 17.169 99.0987 16.5626C98.6785 15.9583 98.4705 15.2108 98.4705 14.3201C98.4705 12.6903 99.1176 11.3195 100.412 10.2077C101.706 9.09593 103.523 8.54004 105.864 8.54004C108.032 8.54004 109.765 9.0475 111.057 10.0603C112.351 11.0731 113.12 12.4692 113.368 14.2464H108.895C108.624 12.8882 107.601 12.2081 105.826 12.2081C104.939 12.2081 104.254 12.3808 103.773 12.7261C103.292 13.0714 103.053 13.5031 103.053 14.0232C103.053 14.5664 103.41 15.0002 104.124 15.3203C104.838 15.6424 105.788 15.9372 106.971 16.2088C108.252 16.5057 109.429 16.8321 110.503 17.1901C111.574 17.548 112.431 18.0787 113.072 18.7841C113.713 19.4874 114.032 20.4939 114.032 21.8036C114.057 22.9406 113.761 23.9661 113.146 24.8799C112.53 25.7938 111.641 26.5097 110.484 27.0298C109.328 27.5457 107.96 27.8068 106.383 27.8068Z" fill="#2A1A4D"/>
<path d="M124.388 27.8068C122.761 27.8068 121.331 27.5415 120.1 27.0109C118.866 26.4802 117.881 25.7454 117.141 24.8062C116.402 23.8671 115.959 22.7806 115.812 21.5467H120.581C120.728 22.2626 121.129 22.8754 121.782 23.3807C122.436 23.8882 123.28 24.1409 124.314 24.1409C125.35 24.1409 126.106 23.9324 126.587 23.5113C127.068 23.0922 127.308 22.61 127.308 22.0668C127.308 21.2772 126.963 20.7402 126.272 20.4539C125.583 20.1696 124.621 19.8916 123.39 19.62C122.6 19.4473 121.799 19.2368 120.986 18.9904C120.173 18.7441 119.427 18.4282 118.749 18.045C118.07 17.6617 117.522 17.169 117.104 16.5626C116.683 15.9583 116.475 15.2108 116.475 14.3201C116.475 12.6903 117.123 11.3195 118.417 10.2077C119.711 9.09593 121.528 8.54004 123.869 8.54004C126.037 8.54004 127.77 9.0475 129.062 10.0603C130.356 11.0731 131.125 12.4692 131.373 14.2464H126.9C126.629 12.8882 125.606 12.2081 123.831 12.2081C122.944 12.2081 122.259 12.3808 121.778 12.7261C121.297 13.0714 121.058 13.5031 121.058 14.0232C121.058 14.5664 121.415 15.0002 122.129 15.3203C122.843 15.6424 123.793 15.9372 124.976 16.2088C126.257 16.5057 127.434 16.8321 128.507 17.1901C129.579 17.548 130.436 18.0787 131.077 18.7841C131.718 19.4874 132.037 20.4939 132.037 21.8036C132.062 22.9406 131.766 23.9661 131.15 24.8799C130.535 25.7938 129.646 26.5097 128.489 27.0298C127.331 27.5457 125.963 27.8068 124.388 27.8068Z" fill="#2A1A4D"/>
<path d="M143.611 27.8068C141.836 27.8068 140.241 27.3983 138.823 26.5834C137.405 25.7685 136.285 24.6378 135.459 23.1933C134.634 21.7488 134.22 20.0748 134.22 18.1734C134.22 16.272 134.638 14.598 135.476 13.1535C136.314 11.7091 137.44 10.5783 138.859 9.76343C140.277 8.94854 141.871 8.54004 143.647 8.54004C145.397 8.54004 146.979 8.94854 148.397 9.76343C149.815 10.5783 150.935 11.7091 151.76 13.1535C152.586 14.598 153 16.272 153 18.1734C153 20.0748 152.586 21.7488 151.76 23.1933C150.935 24.6378 149.806 25.7685 148.378 26.5834C146.951 27.3983 145.361 27.8068 143.611 27.8068ZM143.611 23.6924C144.844 23.6924 145.916 23.2291 146.827 22.3026C147.739 21.3761 148.195 19.999 148.195 18.1713C148.195 16.3436 147.739 14.9665 146.827 14.04C145.916 13.1135 144.855 12.6503 143.649 12.6503C142.392 12.6503 141.312 13.1135 140.413 14.04C139.514 14.9665 139.064 16.3436 139.064 18.1713C139.064 19.999 139.514 21.3761 140.413 22.3026C141.312 23.2291 142.378 23.6924 143.611 23.6924Z" fill="#2A1A4D"/>
</svg>
